Coordinates
version=1
nRows=6
nColumns=63
inDegrees=yes

Units are S.I. units (second, meters, Newtons, ...)
If the header above contains a line with 'inDegrees', this indicates whether rotational values are in degrees (yes) or radians (no).

endheader
time	pelvis_tilt	pelvis_list	pelvis_rotation	pelvis_tx	pelvis_ty	pelvis_tz	hip_flexion_r	hip_adduction_r	hip_rotation_r	knee_angle_r	knee_angle_r_beta	ankle_angle_r	subtalar_angle_r	mtp_angle_r	hip_flexion_l	hip_adduction_l	hip_rotation_l	knee_angle_l	knee_angle_l_beta	ankle_angle_l	subtalar_angle_l	mtp_angle_l	L5_S1_Flex_Ext	L5_S1_Lat_Bending	L5_S1_axial_rotation	L4_L5_Flex_Ext	L4_L5_Lat_Bending	L4_L5_axial_rotation	L3_L4_Flex_Ext	L3_L4_Lat_Bending	L3_L4_axial_rotation	L2_L3_Flex_Ext	L2_L3_Lat_Bending	L2_L3_axial_rotation	L1_L2_Flex_Ext	L1_L2_Lat_Bending	L1_L2_axial_rotation	L1_T12_Flex_Ext	L1_T12_Lat_Bending	L1_T12_axial_rotation	Abs_r3	Abs_r2	Abs_r1	Abs_t1	Abs_t2	neck_flexion	neck_bending	neck_rotation	arm_flex_r	arm_add_r	arm_rot_r	elbow_flex_r	pro_sup_r	wrist_flex_r	wrist_dev_r	arm_flex_l	arm_add_l	arm_rot_l	elbow_flex_l	pro_sup_l	wrist_flex_l	wrist_dev_l
      0.00000000	     -4.26942076	     -3.99804692	     86.32356717	      0.24866187	      0.67044012	      0.61159406	      2.03625169	     -0.64078322	     -2.85951848	      4.16616007	      0.07271321	     22.44701977	      1.26860315	      0.00000000	      1.92851981	      0.14481701	     -3.40382273	      2.47157553	      0.04313713	     23.97238251	      3.11500288	      0.00000000	      0.00852392	      0.01298430	      0.72733661	      0.01582977	      0.01726912	      0.77279515	      0.01400395	      0.03157004	      0.77279515	      0.00974199	      0.03157004	      0.63641954	      0.00791531	      0.02647759	      0.59096100	      0.00487057	      0.02011269	      0.54550246	      0.06088550	      0.14688105	      4.04522804	      0.00000000	      0.00000000	     17.97954128	      0.67962418	      1.77305513	      7.97075332	    -10.12679987	     59.37873408	     48.44329328	      6.72613244	     -5.87118067	     20.10510283	      8.17871530	     -7.28141532	     50.02531461	     45.72747020	     85.89266278	     11.60186425	      6.48943761
      0.01666667	     -3.46840913	     -3.48983563	     86.75333443	      0.24694972	      0.67073514	      0.60793106	      0.62890607	      0.27294978	     -0.26713767	      3.03701011	      0.05300583	     20.49522365	     -3.25063513	      0.00000000	      0.50708892	     -0.42938040	      3.14262366	      1.32019215	      0.02304170	     22.32479893	     -4.98848036	      0.00000000	     -0.01315006	      0.08364849	      0.74198000	     -0.02442098	      0.11125250	      0.78835375	     -0.02160424	      0.20338295	      0.78835375	     -0.01502921	      0.20338295	      0.64923250	     -0.01221115	      0.17057601	      0.60285875	     -0.00751395	      0.12957152	      0.55648500	     -0.09392959	      0.94624849	      4.12667016	      0.00000000	      0.00000000	     19.25409763	     -1.66506981	     -0.24217660	      8.71946424	    -10.83638664	     62.60782486	     48.13040219	     10.56312502	     -3.10921666	     19.04950448	      9.52043199	     -8.08271488	     58.06792799	     44.22080106	     86.87256277	      9.07423209	      1.29827392
      0.03333333	     -2.76580991	     -3.19556536	     87.31694498	      0.24487268	      0.67091887	      0.60559466	     -0.25599316	      0.99107198	      0.03034338	      2.32894961	      0.04064784	     19.59404387	     -4.48836666	      0.00000000	     -0.19080577	     -1.06425798	      4.77392843	      0.89735102	      0.01566173	     22.31612129	     -6.15127848	      0.00000000	     -0.02755946	      0.15135298	      0.72875455	     -0.05118067	      0.20129947	      0.77430171	     -0.04527744	      0.36799965	      0.77430171	     -0.03149771	      0.36799965	      0.63766023	     -0.02559171	      0.30863901	      0.59211307	     -0.01574748	      0.23444577	      0.54656591	     -0.19685446	      1.71213523	      4.05311416	      0.00000000	      0.00000000	     20.32012143	     -3.71143718	     -1.37496013	      9.16210732	    -11.35914198	     64.78519666	     48.02742961	     12.12308906	     -1.71371304	     17.33141925	     10.88980231	     -8.28015190	     64.65718049	     42.77102856	     87.37928201	      5.94890809	     -3.14998138
      0.05000000	     -2.04786522	     -2.94716258	     87.89170609	      0.24263806	      0.67115316	      0.60405980	     -0.92828032	      1.72612534	      0.51584940	      1.80547101	      0.03151141	     18.85920078	     -5.95793251	      0.00000000	     -0.64592475	     -1.72598673	      6.05187954	      0.66442492	      0.01159640	     22.57374140	     -6.95734914	      0.00000000	     -0.05212022	      0.22949260	      0.71168226	     -0.09679247	      0.30522515	      0.75616240	     -0.08562832	      0.55798830	      0.75616240	     -0.05956821	      0.55798830	      0.62272198	     -0.04839884	      0.46798130	      0.57824184	     -0.02978150	      0.35548403	      0.53376170	     -0.37228955	      2.59606613	      3.95816323	      0.00000000	      0.00000000	     21.12049692	     -5.63224936	     -1.82880307	      9.09109549	    -11.71865231	     65.19611701	     48.03811618	     13.11865715	     -1.34499114	     16.31866648	     12.02245563	     -8.01738218	     69.19586517	     41.55311730	     87.42529933	      3.48537981	     -5.77038436
      0.06666667	     -1.60977584	     -2.95524411	     88.25549949	      0.24071462	      0.67108854	      0.60320809	     -1.18470390	      2.16781024	      1.72651066	      1.40257289	      0.02447951	     18.29405753	     -7.94332974	      0.00000000	     -0.71323237	     -2.10494919	      6.77668347	      0.53574186	      0.00935046	     22.86539542	     -7.42456730	      0.00000000	     -0.04995026	      0.27679333	      0.73898019	     -0.09276263	      0.36813513	      0.78516645	     -0.08206329	      0.67299530	      0.78516645	     -0.05708816	      0.67299530	      0.64660766	     -0.04638381	      0.56443696	      0.60042140	     -0.02854158	      0.42875287	      0.55423514	     -0.35678974	      3.13114149	      4.10998610	      0.00000000	      0.00000000	     21.89306529	     -7.18036750	     -1.87592653	      8.50633700	    -11.79633947	     64.20675459	     48.03952437	     13.43328936	     -1.60514567	     15.46329120	     12.96243643	     -7.71354588	     72.53922672	     40.50673136	     86.82940654	      1.13528909	     -8.24515897
      0.08333333	     -1.19242071	     -2.98836411	     88.67765290	      0.23871163	      0.67112313	      0.60302605	     -1.27565566	      2.56700089	      2.02481655	      1.17536444	      0.02051398	     18.20116780	     -8.63012283	      0.00000000	     -0.64648231	     -2.47281513	      6.98034311	      0.47427625	      0.00827768	     23.29510161	     -7.10190252	      0.00000000	     -0.06004241	      0.32756770	      0.71498192	     -0.11150476	      0.43566504	      0.75966829	     -0.09864367	      0.79644810	      0.75966829	     -0.06862247	      0.79644810	      0.62560918	     -0.05575538	      0.66797605	      0.58092281	     -0.03430823	      0.50740236	      0.53623644	     -0.42887693	      3.70551131	      3.97651497	      0.00000000	      0.00000000	     22.55739594	     -8.57336727	     -1.34256579	      7.91924523	    -11.75704055	     62.92304936	     47.93835855	     12.96954477	     -1.81992991	     14.62535179	     13.27284472	     -7.37341373	     72.85712566	     39.92562317	     86.29859612	      0.80982441	     -8.73620095
